<svg xmlns="http://www.w3.org/2000/svg" version="1.1" xmlns:xlink="http://www.w3.org/1999/xlink" xmlns:svgjs="http://svgjs.dev/svgjs" width="1500" height="299" viewBox="0 0 1500 299"><g transform="matrix(1,0,0,1,-0.9090909090909918,0.7173252113363731)"><svg viewBox="0 0 396 79" data-background-color="#000000" preserveAspectRatio="xMidYMid meet" height="299" width="1500" xmlns="http://www.w3.org/2000/svg" xmlns:xlink="http://www.w3.org/1999/xlink"><g id="tight-bounds" transform="matrix(1,0,0,1,0.2400000000000091,-0.18952739697516563)"><svg viewBox="0 0 395.52 79.37905479395032" height="79.37905479395032" width="395.52"><g><svg viewBox="0 0 517.0051581845521 103.76057033850756" height="79.37905479395032" width="395.52"><g transform="matrix(1,0,0,1,121.48515818455208,14.340281428838601)"><svg viewBox="0 0 395.52 75.08000748083036" height="75.08000748083036" width="395.52"><g id="textblocktransform"><svg viewBox="0 0 395.52 75.08000748083036" height="75.08000748083036" width="395.52" id="textblock"><g><svg viewBox="0 0 395.52 75.08000748083036" height="75.08000748083036" width="395.52"><g transform="matrix(1,0,0,1,0,0)"><svg width="395.52" viewBox="0.6 -39.85 267.33 50.75" height="75.08000748083036" data-palette-color="url(#9f881501-3eb8-47cf-bbc0-da5b07d895ea)"></svg></g></svg></g></svg></g></svg></g><g><svg viewBox="0 0 103.76057033850756 103.76057033850756" height="103.76057033850756" width="103.76057033850756"><g><svg xmlns="http://www.w3.org/2000/svg" xmlns:xlink="http://www.w3.org/1999/xlink" version="1.1" x="0" y="0" viewBox="11.5 11.499999999999993 77 77" enable-background="new 0 0 100 100" xml:space="preserve" height="103.76057033850756" width="103.76057033850756" class="icon-icon-0" data-fill-palette-color="accent" id="icon-0"></svg></g></svg></g></svg></g><defs></defs><mask id="f4775913-e1bf-425e-bf46-ffc85e956fd4"><g id="SvgjsG1753"><svg viewBox="0 0 395.52 79.37905479395032" height="79.37905479395032" width="395.52"><g><svg viewBox="0 0 517.0051581845521 103.76057033850756" height="79.37905479395032" width="395.52"><g transform="matrix(1,0,0,1,121.48515818455208,14.340281428838601)"><svg viewBox="0 0 395.52 75.08000748083036" height="75.08000748083036" width="395.52"><g id="SvgjsG1752"><svg viewBox="0 0 395.52 75.08000748083036" height="75.08000748083036" width="395.52" id="SvgjsSvg1751"><g><svg viewBox="0 0 395.52 75.08000748083036" height="75.08000748083036" width="395.52"><g transform="matrix(1,0,0,1,0,0)"><svg width="395.52" viewBox="0.6 -39.85 267.33 50.75" height="75.08000748083036" data-palette-color="url(#9f881501-3eb8-47cf-bbc0-da5b07d895ea)"><path d="M30-26.45L36.15-26.45 30.4 0 22.4 0 18.4-20.75 14.3 0 6.45 0 0.6-26.45 7-26.45 10.7-4.7 15.3-26.45 21.85-26.45 26.05-4.7 30-26.45ZM40.55-26.45L46.95-26.45 46.95 0 40.55 0 40.55-26.45ZM43.7-39.85Q45.5-39.85 46.62-38.73 47.75-37.6 47.75-35.95L47.75-35.95Q47.75-34.3 46.62-33.2 45.5-32.1 43.7-32.1L43.7-32.1Q41.95-32.1 40.82-33.2 39.7-34.3 39.7-35.95L39.7-35.95Q39.7-37.6 40.82-38.73 41.95-39.85 43.7-39.85L43.7-39.85ZM68.75-27.2Q72.3-27.2 74.27-25.08 76.25-22.95 76.25-19.15L76.25-19.15 76.25 0 69.85 0 69.85-18.15Q69.85-20.5 69.02-21.45 68.2-22.4 66.6-22.4L66.6-22.4Q64.95-22.4 63.62-21.38 62.3-20.35 61.05-18.4L61.05-18.4 61.05 0 54.65 0 54.65-26.45 60.2-26.45 60.7-23Q63.95-27.2 68.75-27.2L68.75-27.2ZM96.59-5.35L98.84-1.25Q97.44-0.25 95.72 0.25 93.99 0.75 92.19 0.75L92.19 0.75Q88.29 0.7 86.27-1.48 84.24-3.65 84.24-7.9L84.24-7.9 84.24-21.85 80.09-21.85 80.09-26.45 84.24-26.45 84.24-32.3 90.64-33.05 90.64-26.45 96.79-26.45 96.14-21.85 90.64-21.85 90.64-8.05Q90.64-6.1 91.32-5.25 91.99-4.4 93.44-4.4L93.44-4.4Q94.89-4.4 96.59-5.35L96.59-5.35ZM124.14-13.85Q124.14-13.35 123.99-11.25L123.99-11.25 107.39-11.25Q107.69-7.4 109.39-5.75 111.09-4.1 113.89-4.1L113.89-4.1Q115.64-4.1 117.19-4.67 118.74-5.25 120.49-6.45L120.49-6.45 123.14-2.8Q118.74 0.75 113.34 0.75L113.34 0.75Q107.29 0.75 104.02-2.95 100.74-6.65 100.74-13.05L100.74-13.05Q100.74-17.1 102.14-20.33 103.54-23.55 106.19-25.38 108.84-27.2 112.49-27.2L112.49-27.2Q118.04-27.2 121.09-23.68 124.14-20.15 124.14-13.85L124.14-13.85ZM117.79-15.4L117.79-15.7Q117.79-22.65 112.64-22.65L112.64-22.65Q110.29-22.65 108.97-20.93 107.64-19.2 107.39-15.4L107.39-15.4 117.79-15.4ZM142.94-27.15Q144.39-27.15 145.59-26.8L145.59-26.8 144.49-20.6Q143.29-20.9 142.14-20.9L142.14-20.9Q139.79-20.9 138.44-19.23 137.09-17.55 136.29-14.1L136.29-14.1 136.29 0 129.89 0 129.89-26.45 135.44-26.45 136.04-21.25Q136.99-24.1 138.79-25.63 140.59-27.15 142.94-27.15L142.94-27.15ZM163.29-27.2Q168.29-27.2 170.69-23.55 173.09-19.9 173.09-13.3L173.09-13.3Q173.09-9.2 171.86-6.03 170.64-2.85 168.26-1.05 165.89 0.75 162.64 0.75L162.64 0.75Q158.44 0.75 155.99-2.15L155.99-2.15 155.99 10.2 149.59 10.9 149.59-26.45 155.19-26.45 155.54-23.2Q157.09-25.2 159.09-26.2 161.09-27.2 163.29-27.2L163.29-27.2ZM160.84-4.15Q166.39-4.15 166.39-13.25L166.39-13.25Q166.39-18.1 165.14-20.25 163.89-22.4 161.39-22.4L161.39-22.4Q159.79-22.4 158.39-21.43 156.99-20.45 155.99-18.8L155.99-18.8 155.99-6.9Q157.84-4.15 160.84-4.15L160.84-4.15ZM193.48-27.2Q196.98-27.2 198.98-25.05 200.98-22.9 200.98-19.15L200.98-19.15 200.98 0 194.58 0 194.58-18.15Q194.58-20.5 193.76-21.45 192.93-22.4 191.33-22.4L191.33-22.4Q189.73-22.4 188.38-21.38 187.03-20.35 185.78-18.45L185.78-18.45 185.78 0 179.38 0 179.38-37 185.78-37.65 185.78-23.3Q188.98-27.2 193.48-27.2L193.48-27.2ZM208.43-26.45L214.83-26.45 214.83 0 208.43 0 208.43-26.45ZM211.58-39.85Q213.38-39.85 214.51-38.73 215.63-37.6 215.63-35.95L215.63-35.95Q215.63-34.3 214.51-33.2 213.38-32.1 211.58-32.1L211.58-32.1Q209.83-32.1 208.71-33.2 207.58-34.3 207.58-35.95L207.58-35.95Q207.58-37.6 208.71-38.73 209.83-39.85 211.58-39.85L211.58-39.85ZM230.88-27.2Q236.23-27.2 240.28-24.05L240.28-24.05 237.78-20.3Q234.38-22.45 231.13-22.45L231.13-22.45Q229.23-22.45 228.18-21.73 227.13-21 227.13-19.8L227.13-19.8Q227.13-18.9 227.58-18.3 228.03-17.7 229.2-17.18 230.38-16.65 232.68-16L232.68-16Q236.98-14.85 239.05-12.95 241.13-11.05 241.13-7.65L241.13-7.65Q241.13-3.7 237.93-1.48 234.73 0.75 229.98 0.75L229.98 0.75Q226.73 0.75 224.05-0.25 221.38-1.25 219.43-3L219.43-3 222.63-6.6Q226.08-4 229.83-4L229.83-4Q231.98-4 233.25-4.85 234.53-5.7 234.53-7.2L234.53-7.2Q234.53-8.35 234.05-9.03 233.58-9.7 232.35-10.23 231.13-10.75 228.53-11.5L228.53-11.5Q224.48-12.6 222.58-14.58 220.68-16.55 220.68-19.5L220.68-19.5Q220.68-21.7 221.95-23.45 223.23-25.2 225.55-26.2 227.88-27.2 230.88-27.2L230.88-27.2ZM260.43-27.2Q263.93-27.2 265.93-25.05 267.93-22.9 267.93-19.15L267.93-19.15 267.93 0 261.53 0 261.53-18.15Q261.53-20.5 260.7-21.45 259.88-22.4 258.28-22.4L258.28-22.4Q256.68-22.4 255.33-21.38 253.98-20.35 252.73-18.45L252.73-18.45 252.73 0 246.33 0 246.33-37 252.73-37.65 252.73-23.3Q255.93-27.2 260.43-27.2L260.43-27.2Z" opacity="1" transform="matrix(1,0,0,1,0,0)" fill="white" class="wordmark-text-0" id="SvgjsPath1750"></path></svg></g></svg></g></svg></g></svg></g><g><svg viewBox="0 0 103.76057033850756 103.76057033850756" height="103.76057033850756" width="103.76057033850756"><g><svg xmlns="http://www.w3.org/2000/svg" xmlns:xlink="http://www.w3.org/1999/xlink" version="1.1" x="0" y="0" viewBox="11.5 11.499999999999993 77 77" enable-background="new 0 0 100 100" xml:space="preserve" height="103.76057033850756" width="103.76057033850756" class="icon-icon-0" data-fill-palette-color="accent" id="SvgjsSvg1749"><path fill="black" d="M75.075 64.591c-21.906 0-39.666-17.759-39.666-39.667 0-4.712 0.826-9.231 2.333-13.424C22.442 17.003 11.5 31.638 11.5 48.833 11.5 70.741 29.259 88.5 51.167 88.5c17.195 0 31.83-10.942 37.333-26.242C84.307 63.765 79.789 64.591 75.075 64.591z"></path></svg></g></svg></g></svg></g><defs><mask></mask></defs></svg><rect width="395.52" height="79.37905479395032" fill="black" stroke="none" visibility="hidden"></rect></g></mask><linearGradient x1="0.054" x2="0.941" y1="0.5" y2="0.5" id="9f881501-3eb8-47cf-bbc0-da5b07d895ea"><stop stop-color="#eaa79c" offset="0"></stop><stop stop-color="#f2e8cb" offset="0.498"></stop><stop stop-color="#eaa79c" offset="1"></stop></linearGradient><rect width="395.52" height="79.37905479395032" fill="url(#9f881501-3eb8-47cf-bbc0-da5b07d895ea)" mask="url(#f4775913-e1bf-425e-bf46-ffc85e956fd4)" data-fill-palette-color="primary"></rect><mask id="3197c4ff-81df-42a9-a8da-acdf8f1a9b5b"><g id="SvgjsG1772"><svg viewBox="0 0 395.52 79.37905479395032" height="79.37905479395032" width="395.52"><g><svg viewBox="0 0 517.0051581845521 103.76057033850756" height="79.37905479395032" width="395.52"><g transform="matrix(1,0,0,1,121.48515818455208,14.340281428838601)"><svg viewBox="0 0 395.52 75.08000748083036" height="75.08000748083036" width="395.52"><g id="SvgjsG1771"><svg viewBox="0 0 395.52 75.08000748083036" height="75.08000748083036" width="395.52" id="SvgjsSvg1770"><g><svg viewBox="0 0 395.52 75.08000748083036" height="75.08000748083036" width="395.52"><g transform="matrix(1,0,0,1,0,0)"><svg width="395.52" viewBox="0.6 -39.85 267.33 50.75" height="75.08000748083036" data-palette-color="url(#9f881501-3eb8-47cf-bbc0-da5b07d895ea)"></svg></g></svg></g></svg></g></svg></g><g><svg viewBox="0 0 103.76057033850756 103.76057033850756" height="103.76057033850756" width="103.76057033850756"><g><svg xmlns="http://www.w3.org/2000/svg" xmlns:xlink="http://www.w3.org/1999/xlink" version="1.1" x="0" y="0" viewBox="11.5 11.499999999999993 77 77" enable-background="new 0 0 100 100" xml:space="preserve" height="103.76057033850756" width="103.76057033850756" class="icon-icon-0" data-fill-palette-color="accent" id="SvgjsSvg1769"><path fill="white" d="M75.075 64.591c-21.906 0-39.666-17.759-39.666-39.667 0-4.712 0.826-9.231 2.333-13.424C22.442 17.003 11.5 31.638 11.5 48.833 11.5 70.741 29.259 88.5 51.167 88.5c17.195 0 31.83-10.942 37.333-26.242C84.307 63.765 79.789 64.591 75.075 64.591z"></path></svg></g></svg></g></svg></g><defs><mask></mask></defs><mask><g id="SvgjsG1768"><svg viewBox="0 0 395.52 79.37905479395032" height="79.37905479395032" width="395.52"><g><svg viewBox="0 0 517.0051581845521 103.76057033850756" height="79.37905479395032" width="395.52"><g transform="matrix(1,0,0,1,121.48515818455208,14.340281428838601)"><svg viewBox="0 0 395.52 75.08000748083036" height="75.08000748083036" width="395.52"><g id="SvgjsG1767"><svg viewBox="0 0 395.52 75.08000748083036" height="75.08000748083036" width="395.52" id="SvgjsSvg1766"><g><svg viewBox="0 0 395.52 75.08000748083036" height="75.08000748083036" width="395.52"><g transform="matrix(1,0,0,1,0,0)"><svg width="395.52" viewBox="0.6 -39.85 267.33 50.75" height="75.08000748083036" data-palette-color="url(#9f881501-3eb8-47cf-bbc0-da5b07d895ea)"><path d="M30-26.45L36.15-26.45 30.4 0 22.4 0 18.4-20.75 14.3 0 6.45 0 0.6-26.45 7-26.45 10.7-4.7 15.3-26.45 21.85-26.45 26.05-4.7 30-26.45ZM40.55-26.45L46.95-26.45 46.95 0 40.55 0 40.55-26.45ZM43.7-39.85Q45.5-39.85 46.62-38.73 47.75-37.6 47.75-35.95L47.75-35.95Q47.75-34.3 46.62-33.2 45.5-32.1 43.7-32.1L43.7-32.1Q41.95-32.1 40.82-33.2 39.7-34.3 39.7-35.95L39.7-35.95Q39.7-37.6 40.82-38.73 41.95-39.85 43.7-39.85L43.7-39.85ZM68.75-27.2Q72.3-27.2 74.27-25.08 76.25-22.95 76.25-19.15L76.25-19.15 76.25 0 69.85 0 69.85-18.15Q69.85-20.5 69.02-21.45 68.2-22.4 66.6-22.4L66.6-22.4Q64.95-22.4 63.62-21.38 62.3-20.35 61.05-18.4L61.05-18.4 61.05 0 54.65 0 54.65-26.45 60.2-26.45 60.7-23Q63.95-27.2 68.75-27.2L68.75-27.2ZM96.59-5.35L98.84-1.25Q97.44-0.25 95.72 0.25 93.99 0.75 92.19 0.75L92.19 0.75Q88.29 0.7 86.27-1.48 84.24-3.65 84.24-7.9L84.24-7.9 84.24-21.85 80.09-21.85 80.09-26.45 84.24-26.45 84.24-32.3 90.64-33.05 90.64-26.45 96.79-26.45 96.14-21.85 90.64-21.85 90.64-8.05Q90.64-6.1 91.32-5.25 91.99-4.4 93.44-4.4L93.44-4.4Q94.89-4.4 96.59-5.35L96.59-5.35ZM124.14-13.85Q124.14-13.35 123.99-11.25L123.99-11.25 107.39-11.25Q107.69-7.4 109.39-5.75 111.09-4.1 113.89-4.1L113.89-4.1Q115.64-4.1 117.19-4.67 118.74-5.25 120.49-6.45L120.49-6.45 123.14-2.8Q118.74 0.75 113.34 0.75L113.34 0.75Q107.29 0.75 104.02-2.95 100.74-6.65 100.74-13.05L100.74-13.05Q100.74-17.1 102.14-20.33 103.54-23.55 106.19-25.38 108.84-27.2 112.49-27.2L112.49-27.2Q118.04-27.2 121.09-23.68 124.14-20.15 124.14-13.85L124.14-13.85ZM117.79-15.4L117.79-15.7Q117.79-22.65 112.64-22.65L112.64-22.65Q110.29-22.65 108.97-20.93 107.64-19.2 107.39-15.4L107.39-15.4 117.79-15.4ZM142.94-27.15Q144.39-27.15 145.59-26.8L145.59-26.8 144.49-20.6Q143.29-20.9 142.14-20.9L142.14-20.9Q139.79-20.9 138.44-19.23 137.09-17.55 136.29-14.1L136.29-14.1 136.29 0 129.89 0 129.89-26.45 135.44-26.45 136.04-21.25Q136.99-24.1 138.79-25.63 140.59-27.15 142.94-27.15L142.94-27.15ZM163.29-27.2Q168.29-27.2 170.69-23.55 173.09-19.9 173.09-13.3L173.09-13.3Q173.09-9.2 171.86-6.03 170.64-2.85 168.26-1.05 165.89 0.75 162.64 0.75L162.64 0.75Q158.44 0.75 155.99-2.15L155.99-2.15 155.99 10.2 149.59 10.9 149.59-26.45 155.19-26.45 155.54-23.2Q157.09-25.2 159.09-26.2 161.09-27.2 163.29-27.2L163.29-27.2ZM160.84-4.15Q166.39-4.15 166.39-13.25L166.39-13.25Q166.39-18.1 165.14-20.25 163.89-22.4 161.39-22.4L161.39-22.4Q159.79-22.4 158.39-21.43 156.99-20.45 155.99-18.8L155.99-18.8 155.99-6.9Q157.84-4.15 160.84-4.15L160.84-4.15ZM193.48-27.2Q196.98-27.2 198.98-25.05 200.98-22.9 200.98-19.15L200.98-19.15 200.98 0 194.58 0 194.58-18.15Q194.58-20.5 193.76-21.45 192.93-22.4 191.33-22.4L191.33-22.4Q189.73-22.4 188.38-21.38 187.03-20.35 185.78-18.45L185.78-18.45 185.78 0 179.38 0 179.38-37 185.78-37.65 185.78-23.3Q188.98-27.2 193.48-27.2L193.48-27.2ZM208.43-26.45L214.83-26.45 214.83 0 208.43 0 208.43-26.45ZM211.58-39.85Q213.38-39.85 214.51-38.73 215.63-37.6 215.63-35.95L215.63-35.95Q215.63-34.3 214.51-33.2 213.38-32.1 211.58-32.1L211.58-32.1Q209.83-32.1 208.71-33.2 207.58-34.3 207.58-35.95L207.58-35.95Q207.58-37.6 208.71-38.73 209.83-39.85 211.58-39.85L211.58-39.85ZM230.88-27.2Q236.23-27.2 240.28-24.05L240.28-24.05 237.78-20.3Q234.38-22.45 231.13-22.45L231.13-22.45Q229.23-22.45 228.18-21.73 227.13-21 227.13-19.8L227.13-19.8Q227.13-18.9 227.58-18.3 228.03-17.7 229.2-17.18 230.38-16.65 232.68-16L232.68-16Q236.98-14.85 239.05-12.95 241.13-11.05 241.13-7.65L241.13-7.65Q241.13-3.7 237.93-1.48 234.73 0.75 229.98 0.75L229.98 0.75Q226.73 0.75 224.05-0.25 221.38-1.25 219.43-3L219.43-3 222.63-6.6Q226.08-4 229.83-4L229.83-4Q231.98-4 233.25-4.85 234.53-5.7 234.53-7.2L234.53-7.2Q234.53-8.35 234.05-9.03 233.58-9.7 232.35-10.23 231.13-10.75 228.53-11.5L228.53-11.5Q224.48-12.6 222.58-14.58 220.68-16.55 220.68-19.5L220.68-19.5Q220.68-21.7 221.95-23.45 223.23-25.2 225.55-26.2 227.88-27.2 230.88-27.2L230.88-27.2ZM260.43-27.2Q263.93-27.2 265.93-25.05 267.93-22.9 267.93-19.15L267.93-19.15 267.93 0 261.53 0 261.53-18.15Q261.53-20.5 260.7-21.45 259.88-22.4 258.28-22.4L258.28-22.4Q256.68-22.4 255.33-21.38 253.98-20.35 252.73-18.45L252.73-18.45 252.73 0 246.33 0 246.33-37 252.73-37.65 252.73-23.3Q255.93-27.2 260.43-27.2L260.43-27.2Z" opacity="1" transform="matrix(1,0,0,1,0,0)" fill="black" class="wordmark-text-0" id="SvgjsPath1765"></path></svg></g></svg></g></svg></g></svg></g><g><svg viewBox="0 0 103.76057033850756 103.76057033850756" height="103.76057033850756" width="103.76057033850756"><g><svg xmlns="http://www.w3.org/2000/svg" xmlns:xlink="http://www.w3.org/1999/xlink" version="1.1" x="0" y="0" viewBox="11.5 11.499999999999993 77 77" enable-background="new 0 0 100 100" xml:space="preserve" height="103.76057033850756" width="103.76057033850756" class="icon-icon-0" data-fill-palette-color="accent" id="SvgjsSvg1764"><path fill="black" d="M75.075 64.591c-21.906 0-39.666-17.759-39.666-39.667 0-4.712 0.826-9.231 2.333-13.424C22.442 17.003 11.5 31.638 11.5 48.833 11.5 70.741 29.259 88.5 51.167 88.5c17.195 0 31.83-10.942 37.333-26.242C84.307 63.765 79.789 64.591 75.075 64.591z"></path></svg></g></svg></g></svg></g><defs><mask></mask></defs></svg><rect width="395.52" height="79.37905479395032" fill="black" stroke="none" visibility="hidden"></rect></g></mask></svg><rect width="395.52" height="79.37905479395032" fill="black" stroke="none" visibility="hidden"></rect></g></mask><linearGradient x1="0.054" x2="0.941" y1="0.5" y2="0.5" id="993b8c85-433c-48c0-9c0c-6a8ac0fb71e9"><stop stop-color="#eaa79c" offset="0"></stop><stop stop-color="#f2e8cb" offset="0.498"></stop><stop stop-color="#eaa79c" offset="1"></stop></linearGradient><rect width="395.52" height="79.37905479395032" fill="url(#993b8c85-433c-48c0-9c0c-6a8ac0fb71e9)" mask="url(#3197c4ff-81df-42a9-a8da-acdf8f1a9b5b)" data-fill-palette-color="accent"></rect></svg><rect width="395.52" height="79.37905479395032" fill="none" stroke="none" visibility="hidden"></rect></g></svg></g></svg>